<svg width="512" height="512" viewBox="0 0 512 512" fill="none" xmlns="http://www.w3.org/2000/svg">
<path d="M298.667 170.667C305.382 170.667 311.701 173.836 315.73 179.208L373.324 256H469.326C477.193 256 484.426 260.334 488.138 267.271C491.383 273.337 491.481 280.537 488.535 286.625L487.076 289.167L487.035 289.25C487.012 289.284 486.984 289.326 486.951 289.375C486.885 289.473 486.787 289.593 486.68 289.75C486.464 290.065 486.164 290.503 485.785 291.042C485.027 292.118 483.938 293.614 482.555 295.458C479.789 299.146 475.793 304.246 470.722 310.042C460.677 321.522 445.939 336.342 427.826 348.417C409.81 360.427 389.358 369.105 373.951 374.708C366.141 377.548 359.389 379.693 354.555 381.125C352.135 381.842 350.18 382.377 348.805 382.75C348.117 382.937 347.568 383.086 347.18 383.188C346.988 383.237 346.836 383.283 346.722 383.312C346.665 383.327 346.612 383.324 346.576 383.333L346.535 383.354H346.493C344.802 383.777 343.068 384 341.326 384H85.3256C75.5366 384 67.0123 377.33 64.6381 367.833L43.3051 282.5C41.7139 276.129 43.139 269.384 47.1801 264.208C51.2229 259.03 57.4234 256 63.9926 256H114.813L93.4799 213.333H42.6684V170.667H298.667ZM101.972 341.333H338.513C339.531 341.051 340.852 340.676 342.43 340.208C346.595 338.974 352.513 337.118 359.368 334.625C373.293 329.561 390.176 322.239 404.16 312.917C410.659 308.584 416.717 303.666 422.222 298.667H91.3051L101.972 341.333ZM162.522 256H320.022L288.022 213.333H141.188L162.522 256Z" fill="#0079C9"/>
</svg>
