<svg width="512" height="512" viewBox="0 0 512 512" fill="none" xmlns="http://www.w3.org/2000/svg">
<path d="M413.008 85.3333H188.542C184.951 85.3333 181.539 86.7705 179.025 89.2855L89.2387 179.107C89.2387 179.107 89.2387 179.107 89.2387 179.152C88.7 179.691 88.2062 180.275 87.8022 180.903C87.6675 181.083 87.5328 181.308 87.3981 181.532C87.0839 182.026 86.8594 182.475 86.59 183.014C86.5003 183.239 86.3656 183.508 86.2758 183.733C86.0064 184.362 85.8269 185.035 85.6922 185.664C85.6922 185.754 85.6473 185.889 85.6024 185.978C85.4228 186.787 85.3779 187.55 85.3779 188.359C85.3779 188.448 85.3779 188.538 85.3779 188.628V413.182C85.3779 420.637 91.3936 426.655 98.8458 426.655H323.311C323.311 426.655 323.401 426.655 323.446 426.655C324.299 426.655 325.152 426.566 325.96 426.386C326.454 426.296 326.948 426.116 327.441 425.937C327.8 425.802 328.16 425.757 328.519 425.622C329.058 425.398 329.551 425.083 330.09 424.814C330.359 424.679 330.629 424.545 330.853 424.41C331.616 423.916 332.29 423.332 332.918 422.703L422.704 332.882C425.219 330.367 426.655 326.908 426.655 323.361V98.8066C426.655 91.3514 420.639 85.3333 413.187 85.3333H413.008ZM112.224 202.101H175.074V323.361C175.074 330.816 181.09 336.834 188.542 336.834H309.753V399.709H112.224V202.101ZM309.753 202.101V309.887H202.01V202.101H309.753ZM399.54 317.792L336.689 380.667V188.628C336.689 181.173 330.674 175.155 323.221 175.155H131.259L194.109 112.28H399.54V317.792Z" fill="#0079C9"/>
<path d="M422.725 313.938C417.469 308.682 408.934 308.682 403.679 313.938L336.838 380.794V188.674C336.838 181.215 330.819 175.195 323.362 175.195H131.286L198.126 108.339C203.382 103.082 203.382 94.5452 198.126 89.2884C192.871 84.0316 184.336 84.0316 179.08 89.2884L89.241 179.148C88.6571 179.733 88.2079 180.317 87.7587 180.946C87.6239 181.125 87.4892 181.35 87.3993 181.53C87.0849 182.024 86.8154 182.518 86.5908 183.012C86.5009 183.237 86.3662 183.462 86.2763 183.731C86.0068 184.36 85.8271 185.034 85.6474 185.708C85.6474 185.798 85.6025 185.933 85.5576 186.023C85.3779 186.831 85.333 187.595 85.333 188.404C85.333 188.494 85.333 188.584 85.333 188.674C85.333 188.808 85.333 188.943 85.333 189.078C85.333 189.707 85.4228 190.291 85.5127 190.92C85.5127 191.145 85.5576 191.369 85.6474 191.594C85.8271 192.358 86.0068 193.077 86.3212 193.796C86.3662 193.93 86.456 194.065 86.5009 194.155C86.7704 194.739 87.0849 195.323 87.4442 195.862C87.579 196.087 87.7138 196.267 87.8934 196.491C88.2079 196.941 88.5672 197.39 88.9715 197.794C89.1512 197.974 89.2859 198.154 89.4656 198.334C89.9597 198.828 90.4988 199.277 91.0827 199.681C91.1276 199.681 91.2175 199.771 91.2624 199.816C91.8913 200.266 92.5651 200.58 93.2838 200.939C93.5084 201.029 93.733 201.119 93.9576 201.209C94.4966 201.434 95.0357 201.569 95.5747 201.703C95.7993 201.748 96.0688 201.838 96.2934 201.883C97.102 202.018 97.9105 202.108 98.7191 202.108H175.083V323.419C175.083 330.877 181.102 336.898 188.558 336.898H309.842V413.279C309.842 414.087 309.931 414.896 310.066 415.705C310.111 415.974 310.156 416.199 310.246 416.424C310.381 416.963 310.56 417.547 310.74 418.041C310.83 418.266 310.92 418.491 311.009 418.715C311.324 419.434 311.683 420.108 312.132 420.737C312.132 420.782 312.222 420.827 312.267 420.872C312.671 421.456 313.121 421.995 313.66 422.534C313.839 422.714 313.974 422.849 314.154 423.029C314.558 423.433 315.007 423.792 315.456 424.107C315.636 424.242 315.861 424.376 316.04 424.511C316.579 424.871 317.163 425.185 317.792 425.455C317.927 425.5 318.017 425.59 318.152 425.634C318.376 425.724 318.601 425.769 318.825 425.859C319.409 426.084 319.993 426.263 320.622 426.398C321.521 426.578 322.374 426.668 323.272 426.668C323.272 426.668 323.362 426.668 323.407 426.668C324.261 426.668 325.114 426.578 325.923 426.398C326.417 426.308 326.911 426.129 327.405 425.949C327.764 425.814 328.124 425.769 328.483 425.634C329.022 425.41 329.516 425.095 330.055 424.826C330.325 424.691 330.594 424.556 330.819 424.421C331.583 423.927 332.256 423.343 332.885 422.714L422.725 332.854C427.98 327.597 427.98 319.06 422.725 313.804V313.938ZM202.079 309.985V202.153H309.886V309.985H202.079Z" fill="#007BD3"/>
</svg>
