<svg width="802" height="802" viewBox="0 0 802 802" fill="none" xmlns="http://www.w3.org/2000/svg">
<path d="M801 0V2H1V0H801Z" fill="#F5F5F6"/>
<path d="M801 10V12H1V10H801Z" fill="#F5F5F6"/>
<path d="M801 20V22H1V20H801Z" fill="#F5F5F6"/>
<path d="M801 30V32H1V30H801Z" fill="#F5F5F6"/>
<path d="M801 40V42H1V40H801Z" fill="#F5F5F6"/>
<path d="M801 50V52H1V50H801Z" fill="#F5F5F6"/>
<path d="M801 60V62H1V60H801Z" fill="#F5F5F6"/>
<path d="M801 70V72H1V70H801Z" fill="#F5F5F6"/>
<path d="M801 80V82H1V80H801Z" fill="#F5F5F6"/>
<path d="M801 90V92H1V90H801Z" fill="#F5F5F6"/>
<path d="M801 100V102H1V100H801Z" fill="#F5F5F6"/>
<path d="M801 110V112H1V110H801Z" fill="#F5F5F6"/>
<path d="M801 120V122H1V120H801Z" fill="#F5F5F6"/>
<path d="M801 130V132H1V130H801Z" fill="#F5F5F6"/>
<path d="M801 140V142H1V140H801Z" fill="#F5F5F6"/>
<path d="M801 150V152H1V150H801Z" fill="#F5F5F6"/>
<path d="M801 160V162H1V160H801Z" fill="#F5F5F6"/>
<path d="M801 170V172H1V170H801Z" fill="#F5F5F6"/>
<path d="M801 180V182H1V180H801Z" fill="#F5F5F6"/>
<path d="M801 190V192H1V190H801Z" fill="#F5F5F6"/>
<path d="M801 200V202H1V200H801Z" fill="#F5F5F6"/>
<path d="M801 210V212H1V210H801Z" fill="#F5F5F6"/>
<path d="M801 220V222H1V220H801Z" fill="#F5F5F6"/>
<path d="M801 230V232H1V230H801Z" fill="#F5F5F6"/>
<path d="M801 240V242H1V240H801Z" fill="#F5F5F6"/>
<path d="M801 250V252H1V250H801Z" fill="#F5F5F6"/>
<path d="M801 260V262H1V260H801Z" fill="#F5F5F6"/>
<path d="M801 270V272H1V270H801Z" fill="#F5F5F6"/>
<path d="M801 280V282H1V280H801Z" fill="#F5F5F6"/>
<path d="M801 290V292H1V290H801Z" fill="#F5F5F6"/>
<path d="M801 300V302H1V300H801Z" fill="#F5F5F6"/>
<path d="M801 310V312H1V310H801Z" fill="#F5F5F6"/>
<path d="M801 320V322H1V320H801Z" fill="#F5F5F6"/>
<path d="M801 330V332H1V330H801Z" fill="#F5F5F6"/>
<path d="M801 340V342H1V340H801Z" fill="#F5F5F6"/>
<path d="M801 350V352H1V350H801Z" fill="#F5F5F6"/>
<path d="M801 360V362H1V360H801Z" fill="#F5F5F6"/>
<path d="M801 370V372H1V370H801Z" fill="#F5F5F6"/>
<path d="M801 380V382H1V380H801Z" fill="#F5F5F6"/>
<path d="M801 390V392H1V390H801Z" fill="#F5F5F6"/>
<path d="M801 410V412H1V410H801Z" fill="#F5F5F6"/>
<path d="M801 420V422H1V420H801Z" fill="#F5F5F6"/>
<path d="M801 430V432H1V430H801Z" fill="#F5F5F6"/>
<path d="M801 440V442H1V440H801Z" fill="#F5F5F6"/>
<path d="M801 450V452H1V450H801Z" fill="#F5F5F6"/>
<path d="M801 460V462H1V460H801Z" fill="#F5F5F6"/>
<path d="M801 470V472H1V470H801Z" fill="#F5F5F6"/>
<path d="M801 480V482H1V480H801Z" fill="#F5F5F6"/>
<path d="M801 490V492H1V490H801Z" fill="#F5F5F6"/>
<path d="M801 500V502H1V500H801Z" fill="#F5F5F6"/>
<path d="M801 510V512H1V510H801Z" fill="#F5F5F6"/>
<path d="M801 520V522H1V520H801Z" fill="#F5F5F6"/>
<path d="M801 530V532H1V530H801Z" fill="#F5F5F6"/>
<path d="M801 540V542H1V540H801Z" fill="#F5F5F6"/>
<path d="M801 550V552H1V550H801Z" fill="#F5F5F6"/>
<path d="M801 560V562H1V560H801Z" fill="#F5F5F6"/>
<path d="M801 570V572H1V570H801Z" fill="#F5F5F6"/>
<path d="M801 580V582H1V580H801Z" fill="#F5F5F6"/>
<path d="M801 590V592H1V590H801Z" fill="#F5F5F6"/>
<path d="M801 600V602H1V600H801Z" fill="#F5F5F6"/>
<path d="M801 610V612H1V610H801Z" fill="#F5F5F6"/>
<path d="M801 620V622H1V620H801Z" fill="#F5F5F6"/>
<path d="M801 630V632H1V630H801Z" fill="#F5F5F6"/>
<path d="M801 640V642H1V640H801Z" fill="#F5F5F6"/>
<path d="M801 650V652H1V650H801Z" fill="#F5F5F6"/>
<path d="M801 660V662H1V660H801Z" fill="#F5F5F6"/>
<path d="M801 670V672H1V670H801Z" fill="#F5F5F6"/>
<path d="M801 680V682H1V680H801Z" fill="#F5F5F6"/>
<path d="M801 690V692H1V690H801Z" fill="#F5F5F6"/>
<path d="M801 700V702H1V700H801Z" fill="#F5F5F6"/>
<path d="M801 710V712H1V710H801Z" fill="#F5F5F6"/>
<path d="M801 720V722H1V720H801Z" fill="#F5F5F6"/>
<path d="M801 730V732H1V730H801Z" fill="#F5F5F6"/>
<path d="M801 740V742H1V740H801Z" fill="#F5F5F6"/>
<path d="M801 750V752H1V750H801Z" fill="#F5F5F6"/>
<path d="M801 760V762H1V760H801Z" fill="#F5F5F6"/>
<path d="M801 770V772H1V770H801Z" fill="#F5F5F6"/>
<path d="M801 780V782H1V780H801Z" fill="#F5F5F6"/>
<path d="M801 790V792H1V790H801Z" fill="#F5F5F6"/>
<path d="M801 800V802H1V800H801Z" fill="#F5F5F6"/>
<path d="M802 801L800 801L800 1L802 1L802 801Z" fill="#F5F5F6"/>
<path d="M792 801L790 801L790 1L792 1L792 801Z" fill="#F5F5F6"/>
<path d="M782 801L780 801L780 1L782 1L782 801Z" fill="#F5F5F6"/>
<path d="M772 801L770 801L770 1L772 1L772 801Z" fill="#F5F5F6"/>
<path d="M762 801L760 801L760 1L762 1L762 801Z" fill="#F5F5F6"/>
<path d="M752 801L750 801L750 1L752 1L752 801Z" fill="#F5F5F6"/>
<path d="M742 801L740 801L740 1L742 1L742 801Z" fill="#F5F5F6"/>
<path d="M732 801L730 801L730 1L732 1L732 801Z" fill="#F5F5F6"/>
<path d="M722 801L720 801L720 1L722 1L722 801Z" fill="#F5F5F6"/>
<path d="M712 801L710 801L710 1L712 1L712 801Z" fill="#F5F5F6"/>
<path d="M702 801L700 801L700 1L702 1L702 801Z" fill="#F5F5F6"/>
<path d="M692 801L690 801L690 1L692 1L692 801Z" fill="#F5F5F6"/>
<path d="M682 801L680 801L680 1L682 1L682 801Z" fill="#F5F5F6"/>
<path d="M672 801L670 801L670 1L672 1L672 801Z" fill="#F5F5F6"/>
<path d="M662 801L660 801L660 1L662 1L662 801Z" fill="#F5F5F6"/>
<path d="M652 801L650 801L650 1L652 1L652 801Z" fill="#F5F5F6"/>
<path d="M642 801L640 801L640 1L642 1L642 801Z" fill="#F5F5F6"/>
<path d="M632 801L630 801L630 1L632 1L632 801Z" fill="#F5F5F6"/>
<path d="M622 801L620 801L620 1L622 1L622 801Z" fill="#F5F5F6"/>
<path d="M612 801L610 801L610 1L612 1L612 801Z" fill="#F5F5F6"/>
<path d="M602 801L600 801L600 1L602 1L602 801Z" fill="#F5F5F6"/>
<path d="M592 801L590 801L590 1L592 1L592 801Z" fill="#F5F5F6"/>
<path d="M582 801L580 801L580 1L582 1L582 801Z" fill="#F5F5F6"/>
<path d="M572 801L570 801L570 1L572 1L572 801Z" fill="#F5F5F6"/>
<path d="M562 801L560 801L560 1L562 1L562 801Z" fill="#F5F5F6"/>
<path d="M552 801L550 801L550 1L552 1L552 801Z" fill="#F5F5F6"/>
<path d="M542 801L540 801L540 1L542 1L542 801Z" fill="#F5F5F6"/>
<path d="M532 801L530 801L530 1L532 1L532 801Z" fill="#F5F5F6"/>
<path d="M522 801L520 801L520 1L522 1L522 801Z" fill="#F5F5F6"/>
<path d="M512 801L510 801L510 1L512 1L512 801Z" fill="#F5F5F6"/>
<path d="M502 801L500 801L500 1L502 1L502 801Z" fill="#F5F5F6"/>
<path d="M492 801L490 801L490 1L492 1L492 801Z" fill="#F5F5F6"/>
<path d="M482 801L480 801L480 1L482 1L482 801Z" fill="#F5F5F6"/>
<path d="M472 801L470 801L470 1L472 1L472 801Z" fill="#F5F5F6"/>
<path d="M462 801L460 801L460 1L462 1L462 801Z" fill="#F5F5F6"/>
<path d="M452 801L450 801L450 1L452 1L452 801Z" fill="#F5F5F6"/>
<path d="M442 801L440 801L440 1L442 1L442 801Z" fill="#F5F5F6"/>
<path d="M432 801L430 801L430 1L432 1L432 801Z" fill="#F5F5F6"/>
<path d="M422 801L420 801L420 1L422 1L422 801Z" fill="#F5F5F6"/>
<path d="M412 801L410 801L410 1L412 1L412 801Z" fill="#F5F5F6"/>
<path d="M392 801L390 801L390 1L392 1L392 801Z" fill="#F5F5F6"/>
<path d="M382 801L380 801L380 1L382 1L382 801Z" fill="#F5F5F6"/>
<path d="M372 801L370 801L370 1L372 1L372 801Z" fill="#F5F5F6"/>
<path d="M362 801L360 801L360 1L362 1L362 801Z" fill="#F5F5F6"/>
<path d="M352 801L350 801L350 1L352 1L352 801Z" fill="#F5F5F6"/>
<path d="M342 801L340 801L340 1L342 1L342 801Z" fill="#F5F5F6"/>
<path d="M332 801L330 801L330 1L332 1L332 801Z" fill="#F5F5F6"/>
<path d="M322 801L320 801L320 1L322 1L322 801Z" fill="#F5F5F6"/>
<path d="M312 801L310 801L310 1L312 1L312 801Z" fill="#F5F5F6"/>
<path d="M302 801L300 801L300 1L302 1L302 801Z" fill="#F5F5F6"/>
<path d="M292 801L290 801L290 1L292 1L292 801Z" fill="#F5F5F6"/>
<path d="M282 801L280 801L280 1L282 1L282 801Z" fill="#F5F5F6"/>
<path d="M272 801L270 801L270 1L272 1L272 801Z" fill="#F5F5F6"/>
<path d="M262 801L260 801L260 1L262 1L262 801Z" fill="#F5F5F6"/>
<path d="M252 801L250 801L250 1L252 1L252 801Z" fill="#F5F5F6"/>
<path d="M242 801L240 801L240 1L242 1L242 801Z" fill="#F5F5F6"/>
<path d="M232 801L230 801L230 1L232 1L232 801Z" fill="#F5F5F6"/>
<path d="M222 801L220 801L220 1L222 1L222 801Z" fill="#F5F5F6"/>
<path d="M212 801L210 801L210 1L212 1L212 801Z" fill="#F5F5F6"/>
<path d="M202 801L200 801L200 1L202 1L202 801Z" fill="#F5F5F6"/>
<path d="M192 801L190 801L190 1L192 1L192 801Z" fill="#F5F5F6"/>
<path d="M182 801L180 801L180 1L182 1L182 801Z" fill="#F5F5F6"/>
<path d="M172 801L170 801L170 1L172 1L172 801Z" fill="#F5F5F6"/>
<path d="M162 801L160 801L160 1L162 1L162 801Z" fill="#F5F5F6"/>
<path d="M152 801L150 801L150 1L152 1L152 801Z" fill="#F5F5F6"/>
<path d="M142 801L140 801L140 1L142 1L142 801Z" fill="#F5F5F6"/>
<path d="M132 801L130 801L130 1L132 1L132 801Z" fill="#F5F5F6"/>
<path d="M122 801L120 801L120 1L122 1L122 801Z" fill="#F5F5F6"/>
<path d="M112 801L110 801L110 1L112 1L112 801Z" fill="#F5F5F6"/>
<path d="M102 801L100 801L100 1L102 1L102 801Z" fill="#F5F5F6"/>
<path d="M92 801L90 801L90 1L92 1L92 801Z" fill="#F5F5F6"/>
<path d="M82 801L80 801L80 1L82 1L82 801Z" fill="#F5F5F6"/>
<path d="M72 801L70 801L70 1L72 1L72 801Z" fill="#F5F5F6"/>
<path d="M62 801L60 801L60 1L62 1L62 801Z" fill="#F5F5F6"/>
<path d="M52 801L50 801L50 1L52 1L52 801Z" fill="#F5F5F6"/>
<path d="M42 801L40 801L40 1L42 1L42 801Z" fill="#F5F5F6"/>
<path d="M32 801L30 801L30 1L32 1L32 801Z" fill="#F5F5F6"/>
<path d="M22 801L20 801L20 1L22 1L22 801Z" fill="#F5F5F6"/>
<path d="M12 801L9.99997 801L10 1L12 1L12 801Z" fill="#F5F5F6"/>
<path d="M1.99997 801L-3.49691e-05 801L0 1L2 1L1.99997 801Z" fill="#F5F5F6"/>
<path d="M402 3L400 3L400 1L402 1L402 3ZM402 11L400 11L400 7L402 7L402 11ZM402 19L400 19L400 15L402 15L402 19ZM402 27L400 27L400 23L402 23L402 27ZM402 35L400 35L400 31L402 31L402 35ZM402 43L400 43L400 39L402 39L402 43ZM402 51L400 51L400 47L402 47L402 51ZM402 59L400 59L400 55L402 55L402 59ZM402 67L400 67L400 63L402 63L402 67ZM402 75L400 75L400 71L402 71L402 75ZM402 83L400 83L400 79L402 79L402 83ZM402 91L400 91L400 87L402 87L402 91ZM402 99L400 99L400 95L402 95L402 99ZM402 107L400 107L400 103L402 103L402 107ZM402 115L400 115L400 111L402 111L402 115ZM402 123L400 123L400 119L402 119L402 123ZM402 131L400 131L400 127L402 127L402 131ZM402 139L400 139L400 135L402 135L402 139ZM402 147L400 147L400 143L402 143L402 147ZM402 155L400 155L400 151L402 151L402 155ZM402 163L400 163L400 159L402 159L402 163ZM402 171L400 171L400 167L402 167L402 171ZM402 179L400 179L400 175L402 175L402 179ZM402 187L400 187L400 183L402 183L402 187ZM402 195L400 195L400 191L402 191L402 195ZM402 203L400 203L400 199L402 199L402 203ZM402 211L400 211L400 207L402 207L402 211ZM402 219L400 219L400 215L402 215L402 219ZM402 227L400 227L400 223L402 223L402 227ZM402 235L400 235L400 231L402 231L402 235ZM402 243L400 243L400 239L402 239L402 243ZM402 251L400 251L400 247L402 247L402 251ZM402 259L400 259L400 255L402 255L402 259ZM402 267L400 267L400 263L402 263L402 267ZM402 275L400 275L400 271L402 271L402 275ZM402 283L400 283L400 279L402 279L402 283ZM402 291L400 291L400 287L402 287L402 291ZM402 299L400 299L400 295L402 295L402 299ZM402 307L400 307L400 303L402 303L402 307ZM402 315L400 315L400 311L402 311L402 315ZM402 323L400 323L400 319L402 319L402 323ZM402 331L400 331L400 327L402 327L402 331ZM402 339L400 339L400 335L402 335L402 339ZM402 347L400 347L400 343L402 343L402 347ZM402 355L400 355L400 351L402 351L402 355ZM402 363L400 363L400 359L402 359L402 363ZM402 371L400 371L400 367L402 367L402 371ZM402 379L400 379L400 375L402 375L402 379ZM402 387L400 387L400 383L402 383L402 387ZM402 395L400 395L400 391L402 391L402 395ZM402 403L400 403L400 399L402 399L402 403ZM402 411L400 411L400 407L402 407L402 411ZM402 419L400 419L400 415L402 415L402 419ZM402 427L400 427L400 423L402 423L402 427ZM402 435L400 435L400 431L402 431L402 435ZM402 443L400 443L400 439L402 439L402 443ZM402 451L400 451L400 447L402 447L402 451ZM402 459L400 459L400 455L402 455L402 459ZM402 467L400 467L400 463L402 463L402 467ZM402 475L400 475L400 471L402 471L402 475ZM402 483L400 483L400 479L402 479L402 483ZM402 491L400 491L400 487L402 487L402 491ZM402 499L400 499L400 495L402 495L402 499ZM402 507L400 507L400 503L402 503L402 507ZM402 515L400 515L400 511L402 511L402 515ZM402 523L400 523L400 519L402 519L402 523ZM402 531L400 531L400 527L402 527L402 531ZM402 539L400 539L400 535L402 535L402 539ZM402 547L400 547L400 543L402 543L402 547ZM402 555L400 555L400 551L402 551L402 555ZM402 563L400 563L400 559L402 559L402 563ZM402 571L400 571L400 567L402 567L402 571ZM402 579L400 579L400 575L402 575L402 579ZM402 587L400 587L400 583L402 583L402 587ZM402 595L400 595L400 591L402 591L402 595ZM402 603L400 603L400 599L402 599L402 603ZM402 611L400 611L400 607L402 607L402 611ZM402 619L400 619L400 615L402 615L402 619ZM402 627L400 627L400 623L402 623L402 627ZM402 635L400 635L400 631L402 631L402 635ZM402 643L400 643L400 639L402 639L402 643ZM402 651L400 651L400 647L402 647L402 651ZM402 659L400 659L400 655L402 655L402 659ZM402 667L400 667L400 663L402 663L402 667ZM402 675L400 675L400 671L402 671L402 675ZM402 683L400 683L400 679L402 679L402 683ZM402 691L400 691L400 687L402 687L402 691ZM402 699L400 699L400 695L402 695L402 699ZM402 707L400 707L400 703L402 703L402 707ZM402 715L400 715L400 711L402 711L402 715ZM402 723L400 723L400 719L402 719L402 723ZM402 731L400 731L400 727L402 727L402 731ZM402 739L400 739L400 735L402 735L402 739ZM402 747L400 747L400 743L402 743L402 747ZM402 755L400 755L400 751L402 751L402 755ZM402 763L400 763L400 759L402 759L402 763ZM402 771L400 771L400 767L402 767L402 771ZM402 779L400 779L400 775L402 775L402 779ZM402 787L400 787L400 783L402 783L402 787ZM402 795L400 795L400 791L402 791L402 795ZM402 801L400 801L400 799L402 799L402 801Z" fill="#E5E5E6"/>
<path d="M3 400L3 402H1L1 400H3ZM11 400V402H7V400H11ZM19 400V402H15V400H19ZM27 400V402H23V400H27ZM35 400V402H31V400H35ZM43 400V402H39V400H43ZM51 400V402H47V400H51ZM59 400V402H55V400H59ZM67 400V402H63V400H67ZM75 400V402H71V400H75ZM83 400V402H79V400H83ZM91 400V402H87V400H91ZM99 400V402H95V400H99ZM107 400V402H103V400H107ZM115 400V402H111V400H115ZM123 400V402H119V400H123ZM131 400V402H127V400H131ZM139 400V402H135V400H139ZM147 400V402H143V400H147ZM155 400V402H151V400H155ZM163 400V402H159V400H163ZM171 400V402H167V400H171ZM179 400V402L175 402V400L179 400ZM187 400V402H183V400H187ZM195 400V402H191V400H195ZM203 400V402H199V400H203ZM211 400V402H207V400H211ZM219 400V402H215V400H219ZM227 400V402H223V400H227ZM235 400V402H231V400H235ZM243 400V402H239V400H243ZM251 400V402H247V400H251ZM259 400V402H255V400H259ZM267 400V402H263V400H267ZM275 400V402H271V400H275ZM283 400V402H279V400H283ZM291 400V402H287V400H291ZM299 400V402H295V400H299ZM307 400V402H303V400H307ZM315 400V402H311V400H315ZM323 400V402H319V400H323ZM331 400V402H327V400H331ZM339 400V402H335V400H339ZM347 400V402H343V400H347ZM355 400V402H351V400H355ZM363 400V402H359V400H363ZM371 400V402H367V400H371ZM379 400V402H375V400H379ZM387 400V402H383V400H387ZM395 400V402H391V400H395ZM403 400V402H399V400H403ZM411 400V402H407V400H411ZM419 400V402H415V400H419ZM427 400V402H423V400H427ZM435 400V402H431V400H435ZM443 400V402H439V400H443ZM451 400V402H447V400H451ZM459 400V402H455V400H459ZM467 400V402H463V400H467ZM475 400V402H471V400H475ZM483 400V402H479V400H483ZM491 400V402H487V400H491ZM499 400V402H495V400H499ZM507 400V402H503V400H507ZM515 400V402H511V400H515ZM523 400V402H519V400H523ZM531 400V402L527 402V400H531ZM539 400V402H535V400H539ZM547 400V402H543V400H547ZM555 400V402H551V400H555ZM563 400V402H559V400H563ZM571 400V402H567V400H571ZM579 400V402H575V400H579ZM587 400V402H583V400H587ZM595 400V402H591V400H595ZM603 400V402H599V400H603ZM611 400V402H607V400H611ZM619 400V402H615V400H619ZM627 400V402H623V400H627ZM635 400V402H631V400H635ZM643 400V402H639V400H643ZM651 400V402H647V400H651ZM659 400V402H655V400H659ZM667 400V402H663V400H667ZM675 400V402H671V400H675ZM683 400V402H679V400H683ZM691 400V402H687V400H691ZM699 400V402H695V400H699ZM707 400V402H703V400H707ZM715 400V402H711V400H715ZM723 400V402H719V400H723ZM731 400V402H727V400H731ZM739 400V402H735V400H739ZM747 400V402H743V400H747ZM755 400V402H751V400H755ZM763 400V402H759V400H763ZM771 400V402H767V400H771ZM779 400V402H775V400H779ZM787 400V402H783V400H787ZM795 400V402H791V400H795ZM801 400V402H799V400H801Z" fill="#E5E5E6"/>
</svg>
