<svg width="802" height="802" viewBox="0 0 802 802" fill="none" xmlns="http://www.w3.org/2000/svg">
<path d="M1 1H801" stroke="#F5F5F6" stroke-width="2"/>
<path d="M1 11H801" stroke="#F5F5F6" stroke-width="2"/>
<path d="M1 21H801" stroke="#F5F5F6" stroke-width="2"/>
<path d="M1 31H801" stroke="#F5F5F6" stroke-width="2"/>
<path d="M1 41H801" stroke="#F5F5F6" stroke-width="2"/>
<path d="M1 51H801" stroke="#F5F5F6" stroke-width="2"/>
<path d="M1 61H801" stroke="#F5F5F6" stroke-width="2"/>
<path d="M1 71H801" stroke="#F5F5F6" stroke-width="2"/>
<path d="M1 81H801" stroke="#F5F5F6" stroke-width="2"/>
<path d="M1 91H801" stroke="#F5F5F6" stroke-width="2"/>
<path d="M1 101H801" stroke="#F5F5F6" stroke-width="2"/>
<path d="M1 111H801" stroke="#F5F5F6" stroke-width="2"/>
<path d="M1 121H801" stroke="#F5F5F6" stroke-width="2"/>
<path d="M1 131H801" stroke="#F5F5F6" stroke-width="2"/>
<path d="M1 141H801" stroke="#F5F5F6" stroke-width="2"/>
<path d="M1 151H801" stroke="#F5F5F6" stroke-width="2"/>
<path d="M1 161H801" stroke="#F5F5F6" stroke-width="2"/>
<path d="M1 171H801" stroke="#F5F5F6" stroke-width="2"/>
<path d="M1 181H801" stroke="#F5F5F6" stroke-width="2"/>
<path d="M1 191H801" stroke="#F5F5F6" stroke-width="2"/>
<path d="M1 201H801" stroke="#F5F5F6" stroke-width="2"/>
<path d="M1 211H801" stroke="#F5F5F6" stroke-width="2"/>
<path d="M1 221H801" stroke="#F5F5F6" stroke-width="2"/>
<path d="M1 231H801" stroke="#F5F5F6" stroke-width="2"/>
<path d="M1 241H801" stroke="#F5F5F6" stroke-width="2"/>
<path d="M1 251H801" stroke="#F5F5F6" stroke-width="2"/>
<path d="M1 261H801" stroke="#F5F5F6" stroke-width="2"/>
<path d="M1 271H801" stroke="#F5F5F6" stroke-width="2"/>
<path d="M1 281H801" stroke="#F5F5F6" stroke-width="2"/>
<path d="M1 291H801" stroke="#F5F5F6" stroke-width="2"/>
<path d="M1 301H801" stroke="#F5F5F6" stroke-width="2"/>
<path d="M1 311H801" stroke="#F5F5F6" stroke-width="2"/>
<path d="M1 321H801" stroke="#F5F5F6" stroke-width="2"/>
<path d="M1 331H801" stroke="#F5F5F6" stroke-width="2"/>
<path d="M1 341H801" stroke="#F5F5F6" stroke-width="2"/>
<path d="M1 351H801" stroke="#F5F5F6" stroke-width="2"/>
<path d="M1 361H801" stroke="#F5F5F6" stroke-width="2"/>
<path d="M1 371H801" stroke="#F5F5F6" stroke-width="2"/>
<path d="M1 381H801" stroke="#F5F5F6" stroke-width="2"/>
<path d="M1 391H801" stroke="#F5F5F6" stroke-width="2"/>
<path d="M1 401H801" stroke="#F5F5F6" stroke-width="2"/>
<path d="M1 411H801" stroke="#F5F5F6" stroke-width="2"/>
<path d="M1 421H801" stroke="#F5F5F6" stroke-width="2"/>
<path d="M1 431H801" stroke="#F5F5F6" stroke-width="2"/>
<path d="M1 441H801" stroke="#F5F5F6" stroke-width="2"/>
<path d="M1 451H801" stroke="#F5F5F6" stroke-width="2"/>
<path d="M1 461H801" stroke="#F5F5F6" stroke-width="2"/>
<path d="M1 471H801" stroke="#F5F5F6" stroke-width="2"/>
<path d="M1 481H801" stroke="#F5F5F6" stroke-width="2"/>
<path d="M1 491H801" stroke="#F5F5F6" stroke-width="2"/>
<path d="M1 501H801" stroke="#F5F5F6" stroke-width="2"/>
<path d="M1 511H801" stroke="#F5F5F6" stroke-width="2"/>
<path d="M1 521H801" stroke="#F5F5F6" stroke-width="2"/>
<path d="M1 531H801" stroke="#F5F5F6" stroke-width="2"/>
<path d="M1 541H801" stroke="#F5F5F6" stroke-width="2"/>
<path d="M1 551H801" stroke="#F5F5F6" stroke-width="2"/>
<path d="M1 561H801" stroke="#F5F5F6" stroke-width="2"/>
<path d="M1 571H801" stroke="#F5F5F6" stroke-width="2"/>
<path d="M1 581H801" stroke="#F5F5F6" stroke-width="2"/>
<path d="M1 591H801" stroke="#F5F5F6" stroke-width="2"/>
<path d="M1 601H801" stroke="#F5F5F6" stroke-width="2"/>
<path d="M1 611H801" stroke="#F5F5F6" stroke-width="2"/>
<path d="M1 621H801" stroke="#F5F5F6" stroke-width="2"/>
<path d="M1 631H801" stroke="#F5F5F6" stroke-width="2"/>
<path d="M1 641H801" stroke="#F5F5F6" stroke-width="2"/>
<path d="M1 651H801" stroke="#F5F5F6" stroke-width="2"/>
<path d="M1 661H801" stroke="#F5F5F6" stroke-width="2"/>
<path d="M1 671H801" stroke="#F5F5F6" stroke-width="2"/>
<path d="M1 681H801" stroke="#F5F5F6" stroke-width="2"/>
<path d="M1 691H801" stroke="#F5F5F6" stroke-width="2"/>
<path d="M1 701H801" stroke="#F5F5F6" stroke-width="2"/>
<path d="M1 711H801" stroke="#F5F5F6" stroke-width="2"/>
<path d="M1 721H801" stroke="#F5F5F6" stroke-width="2"/>
<path d="M1 731H801" stroke="#F5F5F6" stroke-width="2"/>
<path d="M1 741H801" stroke="#F5F5F6" stroke-width="2"/>
<path d="M1 751H801" stroke="#F5F5F6" stroke-width="2"/>
<path d="M1 761H801" stroke="#F5F5F6" stroke-width="2"/>
<path d="M1 771H801" stroke="#F5F5F6" stroke-width="2"/>
<path d="M1 781H801" stroke="#F5F5F6" stroke-width="2"/>
<path d="M1 791H801" stroke="#F5F5F6" stroke-width="2"/>
<path d="M1 801H801" stroke="#F5F5F6" stroke-width="2"/>
<path d="M801 1L801 801" stroke="#F5F5F6" stroke-width="2"/>
<path d="M791 1L791 801" stroke="#F5F5F6" stroke-width="2"/>
<path d="M781 1L781 801" stroke="#F5F5F6" stroke-width="2"/>
<path d="M771 1L771 801" stroke="#F5F5F6" stroke-width="2"/>
<path d="M761 1L761 801" stroke="#F5F5F6" stroke-width="2"/>
<path d="M751 1L751 801" stroke="#F5F5F6" stroke-width="2"/>
<path d="M741 1L741 801" stroke="#F5F5F6" stroke-width="2"/>
<path d="M731 1L731 801" stroke="#F5F5F6" stroke-width="2"/>
<path d="M721 1L721 801" stroke="#F5F5F6" stroke-width="2"/>
<path d="M711 1L711 801" stroke="#F5F5F6" stroke-width="2"/>
<path d="M701 1L701 801" stroke="#F5F5F6" stroke-width="2"/>
<path d="M691 1L691 801" stroke="#F5F5F6" stroke-width="2"/>
<path d="M681 1L681 801" stroke="#F5F5F6" stroke-width="2"/>
<path d="M671 1L671 801" stroke="#F5F5F6" stroke-width="2"/>
<path d="M661 1L661 801" stroke="#F5F5F6" stroke-width="2"/>
<path d="M651 1L651 801" stroke="#F5F5F6" stroke-width="2"/>
<path d="M641 1L641 801" stroke="#F5F5F6" stroke-width="2"/>
<path d="M631 1L631 801" stroke="#F5F5F6" stroke-width="2"/>
<path d="M621 1L621 801" stroke="#F5F5F6" stroke-width="2"/>
<path d="M611 1L611 801" stroke="#F5F5F6" stroke-width="2"/>
<path d="M601 1L601 801" stroke="#F5F5F6" stroke-width="2"/>
<path d="M591 1L591 801" stroke="#F5F5F6" stroke-width="2"/>
<path d="M581 1L581 801" stroke="#F5F5F6" stroke-width="2"/>
<path d="M571 1L571 801" stroke="#F5F5F6" stroke-width="2"/>
<path d="M561 1L561 801" stroke="#F5F5F6" stroke-width="2"/>
<path d="M551 1L551 801" stroke="#F5F5F6" stroke-width="2"/>
<path d="M541 1L541 801" stroke="#F5F5F6" stroke-width="2"/>
<path d="M531 1L531 801" stroke="#F5F5F6" stroke-width="2"/>
<path d="M521 1L521 801" stroke="#F5F5F6" stroke-width="2"/>
<path d="M511 1L511 801" stroke="#F5F5F6" stroke-width="2"/>
<path d="M501 1L501 801" stroke="#F5F5F6" stroke-width="2"/>
<path d="M491 1L491 801" stroke="#F5F5F6" stroke-width="2"/>
<path d="M481 1L481 801" stroke="#F5F5F6" stroke-width="2"/>
<path d="M471 1L471 801" stroke="#F5F5F6" stroke-width="2"/>
<path d="M461 1L461 801" stroke="#F5F5F6" stroke-width="2"/>
<path d="M451 1L451 801" stroke="#F5F5F6" stroke-width="2"/>
<path d="M441 1L441 801" stroke="#F5F5F6" stroke-width="2"/>
<path d="M431 1L431 801" stroke="#F5F5F6" stroke-width="2"/>
<path d="M421 1L421 801" stroke="#F5F5F6" stroke-width="2"/>
<path d="M411 1L411 801" stroke="#F5F5F6" stroke-width="2"/>
<path d="M401 1L401 801" stroke="#F5F5F6" stroke-width="2"/>
<path d="M391 1L391 801" stroke="#F5F5F6" stroke-width="2"/>
<path d="M381 1L381 801" stroke="#F5F5F6" stroke-width="2"/>
<path d="M371 1L371 801" stroke="#F5F5F6" stroke-width="2"/>
<path d="M361 1L361 801" stroke="#F5F5F6" stroke-width="2"/>
<path d="M351 1L351 801" stroke="#F5F5F6" stroke-width="2"/>
<path d="M341 1L341 801" stroke="#F5F5F6" stroke-width="2"/>
<path d="M331 1L331 801" stroke="#F5F5F6" stroke-width="2"/>
<path d="M321 1L321 801" stroke="#F5F5F6" stroke-width="2"/>
<path d="M311 1L311 801" stroke="#F5F5F6" stroke-width="2"/>
<path d="M301 1L301 801" stroke="#F5F5F6" stroke-width="2"/>
<path d="M291 1L291 801" stroke="#F5F5F6" stroke-width="2"/>
<path d="M281 1L281 801" stroke="#F5F5F6" stroke-width="2"/>
<path d="M271 1L271 801" stroke="#F5F5F6" stroke-width="2"/>
<path d="M261 1L261 801" stroke="#F5F5F6" stroke-width="2"/>
<path d="M251 1L251 801" stroke="#F5F5F6" stroke-width="2"/>
<path d="M241 1L241 801" stroke="#F5F5F6" stroke-width="2"/>
<path d="M231 1L231 801" stroke="#F5F5F6" stroke-width="2"/>
<path d="M221 1L221 801" stroke="#F5F5F6" stroke-width="2"/>
<path d="M211 1L211 801" stroke="#F5F5F6" stroke-width="2"/>
<path d="M201 1L201 801" stroke="#F5F5F6" stroke-width="2"/>
<path d="M191 1L191 801" stroke="#F5F5F6" stroke-width="2"/>
<path d="M181 1L181 801" stroke="#F5F5F6" stroke-width="2"/>
<path d="M171 1L171 801" stroke="#F5F5F6" stroke-width="2"/>
<path d="M161 1L161 801" stroke="#F5F5F6" stroke-width="2"/>
<path d="M151 1L151 801" stroke="#F5F5F6" stroke-width="2"/>
<path d="M141 1L141 801" stroke="#F5F5F6" stroke-width="2"/>
<path d="M131 1L131 801" stroke="#F5F5F6" stroke-width="2"/>
<path d="M121 1L121 801" stroke="#F5F5F6" stroke-width="2"/>
<path d="M111 1L111 801" stroke="#F5F5F6" stroke-width="2"/>
<path d="M101 1L101 801" stroke="#F5F5F6" stroke-width="2"/>
<path d="M91 1L91 801" stroke="#F5F5F6" stroke-width="2"/>
<path d="M81 1L81 801" stroke="#F5F5F6" stroke-width="2"/>
<path d="M71 1L71 801" stroke="#F5F5F6" stroke-width="2"/>
<path d="M61 1L61 801" stroke="#F5F5F6" stroke-width="2"/>
<path d="M51 1L51 801" stroke="#F5F5F6" stroke-width="2"/>
<path d="M41 1L41 801" stroke="#F5F5F6" stroke-width="2"/>
<path d="M31 1L31 801" stroke="#F5F5F6" stroke-width="2"/>
<path d="M21 1L21 801" stroke="#F5F5F6" stroke-width="2"/>
<path d="M11 1L11 801" stroke="#F5F5F6" stroke-width="2"/>
<path d="M1 1L0.999965 801" stroke="#F5F5F6" stroke-width="2"/>
</svg>
