<svg viewBox="0 0 140 56" fill="none" xmlns="http://www.w3.org/2000/svg">
<g clip-path="url(#clip0_1890_3394)">
<path d="M137.224 27.0381C132.444 29.7553 121.323 35.7267 106.46 41.4947C89.0867 48.2389 63.09 56.0042 35.5273 56.0042C33.8148 56.0042 32.1023 55.9757 30.3816 55.9106C13.4356 55.3004 3.46568 51.2165 0.748459 43.7726C-4.02702 30.7112 15.62 12.6994 16.4579 11.9428L18.3697 14.054C18.1785 14.2289 -0.699642 31.5329 3.42094 42.8004C5.70698 49.0484 14.8105 52.5059 30.4833 53.0673C59.4291 54.1086 87.183 45.9203 105.37 38.8669C117.886 34.0142 127.714 29.015 133.266 25.9886C134.458 26.5337 135.784 26.8835 137.224 27.0421V27.0381ZM63.0534 25.594C59.5836 31.1383 56.2888 35.6982 54.0882 37.187C51.0049 39.2778 48.6822 39.1354 48.0843 38.3829C47.4131 37.5409 47.9134 34.9009 52.0381 31.0732C54.4055 28.8767 58.0786 26.554 62.1707 24.3412C63.0697 22.8931 64.0093 21.3352 64.9896 19.6674C59.1321 22.5839 53.4658 25.8625 50.1018 28.9865C43.0973 35.4948 45.0823 39.1801 45.8592 40.1564C47.7019 42.4709 51.7411 42.2187 55.6909 39.5462C58.2616 37.8012 61.8493 32.8712 65.4696 27.1072H65.4777C67.6906 23.5805 70.1515 19.3583 72.7996 14.5584C76.607 7.65956 79.4869 1.9241 79.7676 1.36683L77.27 0.00415039C75.525 2.94103 71.7461 7.59854 69.0288 7.59854C68.7075 7.59854 68.6546 7.51719 68.6302 7.47651C68.0892 6.66297 68.7522 3.62847 69.6837 1.41157L67.1089 0.203468C63.3137 7.5416 56.3498 17.8776 52.7499 17.8776C51.611 17.8776 51.3262 17.4546 51.2286 17.3163C50.4964 16.2424 51.1432 13.6513 51.5662 12.5652L48.967 11.41C48.9385 11.4629 46.5955 16.1163 42.3203 17.4953C43.1868 15.38 43.8335 12.9679 43.0363 11.6622C42.6335 10.9991 41.9298 10.6168 41.1082 10.6168C39.4567 10.6168 37.793 11.589 36.3286 12.8581C36.2798 12.4147 36.1578 12.0039 35.9503 11.6418C35.6574 11.1334 34.9375 10.2873 33.3795 10.2873C31.0772 10.2873 28.2827 12.4269 25.6102 15.1523C27.5465 11.7557 29.1776 8.8758 29.8691 7.61481C31.4962 4.63726 30.3613 2.1763 28.5146 1.06175C26.0373 -0.435161 22.051 0.158723 19.6592 3.74236C18.0158 6.20739 18.7114 8.7497 20.2002 9.88459C21.5588 10.9219 23.7838 10.9869 25.6875 8.79851L23.5398 6.92737C23.0761 7.46024 22.3764 7.96464 21.929 7.62295C21.5344 7.32194 21.3066 6.41077 22.0307 5.3247C23.6211 2.93696 25.9194 2.82307 27.0421 3.50237C28.242 4.22642 27.762 5.54029 27.3715 6.2562C25.1302 10.3605 12.7522 31.8624 12.6302 32.082L15.0627 33.5627C20.5215 25.0815 29.8203 13.1387 33.3877 13.1387C33.4406 13.1387 33.4853 13.1387 33.5138 13.1469C33.7049 13.9075 32.7979 16.4702 31.5653 18.5895L34.006 20.0579C35.568 17.5522 38.4967 14.1109 40.5712 13.5496C40.4248 14.6031 39.6316 16.7671 38.6594 18.6545L39.9245 20.7291C43.5 20.7291 46.2538 19.0003 48.1819 17.1414C48.2999 17.7719 48.5195 18.382 48.8856 18.9189C49.4469 19.7447 50.5737 20.7291 52.7621 20.7291C55.8292 20.7291 59.5186 17.5075 64.0337 10.8852C64.6723 9.94967 65.2784 9.0141 65.8398 8.11921C65.9415 8.45683 66.0838 8.77004 66.2669 9.05071C66.8648 9.94967 67.8492 10.4459 69.041 10.4459C70.1678 10.4459 71.2823 10.0676 72.344 9.46562C71.6973 10.6697 71.0139 11.9184 70.3142 13.1835C67.6906 17.9386 65.254 22.1162 63.0737 25.6022M51.5255 5.58096C50.411 5.58096 49.508 6.48399 49.508 7.59854C49.508 8.71309 50.411 9.61612 51.5255 9.61612C52.6401 9.61612 53.5431 8.71309 53.5431 7.59854C53.5431 6.48399 52.6401 5.58096 51.5255 5.58096ZM112.48 4.54777C113.086 4.17354 113.639 3.97016 114.107 3.94168C114.144 3.94168 114.176 3.94168 114.209 3.94168C114.603 3.94168 114.762 4.10032 114.86 4.26303C114.908 4.34032 114.949 4.43794 114.986 4.5559H117.902C117.809 3.88067 117.601 3.27865 117.276 2.75798C116.568 1.62309 115.348 1.01701 113.932 1.1065C112.065 1.22039 110.064 2.46104 108.197 4.5559H112.484L112.48 4.54777ZM127.779 6.17485H100.639V9.02224H127.779V6.17485ZM134.181 21.6524C132.871 20.8023 131.903 19.4884 131.305 17.7515C131.175 17.3773 131.073 17.0031 130.988 16.6329C130.646 15.1645 130.61 13.7896 130.63 12.9882C132.587 12.012 134.564 11.5279 134.97 11.8086C134.97 11.8086 135.222 12.2561 134.69 13.8791C134.23 15.2702 133.567 16.5353 132.794 17.6539C133.209 18.6871 133.783 19.5088 134.511 20.1067C135.776 18.4918 136.764 16.6736 137.391 14.7699C138.192 12.3415 137.989 10.6086 136.784 9.62019C134.507 7.74905 129.906 10.1002 128.551 10.8649L127.836 11.9428C127.836 11.9713 127.815 12.1218 127.799 12.37C127.799 12.3781 127.799 12.3822 127.799 12.3903C127.795 12.4635 127.791 12.5408 127.787 12.6262C127.787 12.6588 127.787 12.6954 127.787 12.7279C127.787 12.7971 127.783 12.8621 127.779 12.9394C127.779 12.9882 127.779 13.0452 127.779 13.0981C127.779 13.1672 127.779 13.2364 127.779 13.3096C127.779 13.3706 127.779 13.4357 127.779 13.5008C127.779 13.574 127.779 13.6513 127.779 13.7286C127.779 13.7936 127.779 13.8669 127.783 13.936C127.783 14.0214 127.787 14.1069 127.791 14.1964C127.791 14.2655 127.799 14.3347 127.803 14.4038C127.807 14.5014 127.815 14.5991 127.823 14.7048C127.827 14.7699 127.836 14.835 127.84 14.9041C127.848 15.018 127.86 15.1319 127.872 15.2499C127.88 15.3109 127.884 15.3719 127.893 15.4329C127.909 15.5631 127.925 15.6892 127.941 15.8234C127.949 15.8763 127.958 15.9333 127.966 15.9902C127.986 16.1326 128.01 16.2749 128.035 16.4214C128.043 16.4702 128.051 16.519 128.063 16.5678C128.092 16.7224 128.124 16.881 128.157 17.0397C128.165 17.0803 128.177 17.1251 128.185 17.1658C128.222 17.3325 128.263 17.4953 128.307 17.6661C128.32 17.7068 128.328 17.7474 128.34 17.7881C128.385 17.959 128.434 18.1257 128.486 18.2966C128.499 18.3373 128.511 18.3779 128.527 18.4227C128.556 18.5122 128.58 18.6017 128.612 18.6912C128.633 18.7481 128.657 18.8051 128.678 18.862C128.694 18.9067 128.706 18.9515 128.722 18.9962C129.544 21.1928 130.85 22.8972 132.623 24.0524C134.368 25.1832 136.532 25.7608 139.058 25.7608V22.9134C137.094 22.9134 135.45 22.4945 134.177 21.6646L134.181 21.6524ZM89.3267 23.3649C88.9199 22.8768 88.5619 22.3399 88.2406 21.7745C86.9145 22.5758 85.7105 22.9582 84.9335 22.8361C84.6529 22.7914 83.9898 22.6856 83.9898 21.0219C83.9898 17.2512 86.6989 13.1591 86.7355 13.1184L85.1695 10.8486C84.6854 11.0276 80.4509 12.671 73.8979 15.5306C73.0965 16.9787 72.3155 18.3739 71.5467 19.7121C75.9277 17.7108 80.0686 16.0024 82.9932 14.835C82.017 16.6329 81.1424 18.8457 81.1424 21.0219C81.1424 23.5805 82.3912 25.3093 84.482 25.6469C86.0603 25.8991 87.9924 25.3337 89.9734 24.0687C89.7334 23.8327 89.5178 23.5968 89.3267 23.3649ZM128.523 21.7907C127.128 22.6531 125.798 23.068 124.854 22.9175C124.512 22.8605 123.707 22.7344 123.707 20.9162C123.707 18.1908 125.509 14.4892 126.632 13.1469L124.476 11.2879C121.461 14.6072 113.513 22.8972 108.075 22.8972C107.822 22.8972 107.591 22.8809 107.371 22.8443C110.89 20.2613 113.416 16.279 115.71 12.2398C116.019 11.6947 116.295 11.1618 116.54 10.6452H113.334C113.298 10.7103 113.269 10.7713 113.233 10.8324C110.605 15.4573 108.164 18.9067 105.166 20.904C104.528 18.9149 105.117 15.616 106.81 11.9713C107.025 11.5035 107.249 11.0683 107.473 10.6412H104.292C104.271 10.6859 104.251 10.7266 104.227 10.7713C102.091 15.3678 101.53 19.4437 102.608 22.1975C101.326 22.6572 99.9311 22.8931 98.3854 22.8931C95.8268 22.8931 93.8947 22.1324 92.6459 20.6355C91.633 19.4233 91.1449 17.8654 90.9253 16.3888C90.7747 15.3638 90.7544 14.3835 90.7829 13.5821C90.7829 13.5659 90.7829 13.5455 90.7829 13.5292C90.7869 13.3869 90.7951 13.2486 90.8032 13.1184C90.8032 13.094 90.8032 13.0737 90.8073 13.0493C90.8154 12.9476 90.8195 12.8499 90.8276 12.7564C90.8276 12.7238 90.8317 12.6913 90.8358 12.6588C90.8439 12.5693 90.852 12.4838 90.8602 12.4066C90.8602 12.3862 90.8642 12.3659 90.8683 12.3455C92.8452 11.349 94.8628 10.8527 95.2696 11.1374C95.2696 11.1374 95.5218 11.5849 94.9889 13.2079C94.4357 14.8879 93.6018 16.3888 92.6418 17.6824C92.8778 18.439 93.2194 19.1467 93.7076 19.7284C93.8662 19.9196 94.0452 20.0864 94.2364 20.245C95.778 18.3942 96.9739 16.2912 97.6939 14.0987C98.4952 11.6703 98.2919 9.93747 97.0878 8.94902C94.8099 7.07788 90.2093 9.42901 88.8548 10.1937L88.1552 11.174C88.147 11.2107 88.1185 11.3693 88.086 11.6174C88.086 11.6256 88.086 11.6378 88.086 11.6459C88.0779 11.7232 88.0657 11.8045 88.0535 11.894C88.0535 11.9022 88.0535 11.9103 88.0535 11.9225C88.0413 12.0201 88.0291 12.1259 88.0209 12.2398C88.0209 12.2561 88.0209 12.2764 88.0169 12.2967C88.0087 12.3944 87.9965 12.5001 87.9884 12.6099C87.9884 12.6344 87.9884 12.6588 87.9843 12.6832C87.9762 12.8133 87.964 12.9476 87.9599 13.0899C87.9599 13.1103 87.9599 13.1306 87.9599 13.151C87.9518 13.273 87.9477 13.4031 87.9436 13.5333C87.9436 13.5699 87.9436 13.6065 87.9436 13.6472C87.9436 13.8018 87.9355 13.9604 87.9355 14.1272C87.9355 14.1394 87.9355 14.1557 87.9355 14.1679C87.9355 14.3184 87.9355 14.473 87.9396 14.6275C87.9396 14.6763 87.9396 14.7252 87.9396 14.774C87.9436 14.9285 87.9518 15.0872 87.9599 15.2458C87.9599 15.2702 87.9599 15.2906 87.9599 15.315C87.9721 15.4899 87.9843 15.6689 88.0006 15.8519C88.0046 15.9089 88.0128 15.9658 88.0169 16.0227C88.0331 16.1692 88.0494 16.3116 88.0657 16.4621C88.0738 16.5109 88.0779 16.5597 88.0819 16.6085C88.1063 16.7915 88.1348 16.9746 88.1674 17.1617C88.1796 17.2227 88.1918 17.2837 88.1999 17.3488C88.2243 17.4871 88.2528 17.6254 88.2853 17.7678C88.2975 17.8329 88.3138 17.898 88.326 17.963C88.3667 18.1461 88.4155 18.3291 88.4643 18.5162C88.4684 18.5366 88.4724 18.5529 88.4765 18.5732C88.8548 19.9318 89.469 21.2945 90.4453 22.4619C92.2554 24.6341 94.9116 25.7405 98.3447 25.7486C98.3447 25.7486 98.3691 25.7527 98.3813 25.7527C100.623 25.7527 102.591 25.3296 104.336 24.5853C105.178 25.2442 106.378 25.7527 108.067 25.7527C112.13 25.7527 117.133 22.4131 121.067 19.1345C120.929 19.7366 120.851 20.3386 120.851 20.9243C120.851 23.5805 122.173 25.3785 124.394 25.7364C126.119 26.0171 128.218 25.3866 130.317 24.0076C129.633 23.3609 129.031 22.6246 128.515 21.7989L128.523 21.7907Z" fill="#0079C9"/>
</g>
<defs>
<clipPath id="clip0_1890_3394">
<rect width="139.05" height="56" fill="white"/>
</clipPath>
</defs>
</svg>
